<svg width="26" height="26" viewBox="0 0 26 26" fill="none" xmlns="http://www.w3.org/2000/svg">
<path d="M24.2361 0.5H1.98608C1.62141 0.5 1.27167 0.644866 1.01381 0.902728C0.75595 1.16059 0.611084 1.51033 0.611084 1.875V24.125C0.611084 24.4897 0.75595 24.8394 1.01381 25.0973C1.27167 25.3551 1.62141 25.5 1.98608 25.5H13.9611V15.8125H10.7111V12.0625H13.9611V9.25C13.8938 8.5897 13.9717 7.92266 14.1895 7.29567C14.4072 6.66868 14.7595 6.09693 15.2217 5.62051C15.6838 5.1441 16.2446 4.77455 16.8646 4.5378C17.4847 4.30104 18.149 4.20281 18.8111 4.25C19.784 4.24401 20.7564 4.2941 21.7236 4.4V7.775H19.7361C18.1611 7.775 17.8611 8.525 17.8611 9.6125V12.025H21.6111L21.1236 15.775H17.8611V25.5H24.2361C24.4167 25.5 24.5955 25.4644 24.7623 25.3953C24.9291 25.3262 25.0807 25.225 25.2084 25.0973C25.336 24.9696 25.4373 24.818 25.5064 24.6512C25.5755 24.4844 25.6111 24.3056 25.6111 24.125V1.875C25.6111 1.69443 25.5755 1.51563 25.5064 1.34881C25.4373 1.18199 25.336 1.03041 25.2084 0.902728C25.0807 0.775048 24.9291 0.673766 24.7623 0.604666C24.5955 0.535566 24.4167 0.5 24.2361 0.5Z" fill="#F3ECD9"/>
</svg>
