<svg width="135" height="40" viewBox="0 0 135 40" fill="none" xmlns="http://www.w3.org/2000/svg">
<path d="M134.032 35.2681C134.032 37.3841 132.318 39.0981 130.198 39.0981H4.72901C2.61001 39.0981 0.890015 37.3841 0.890015 35.2681V4.72514C0.890015 2.61014 2.61001 0.890137 4.72901 0.890137H130.197C132.318 0.890137 134.031 2.61014 134.031 4.72514L134.032 35.2681Z" fill="white"/>
<path d="M130.198 39.989H4.729C2.122 39.989 0 37.872 0 35.268V4.726C0 2.12 2.122 0 4.729 0H130.197C132.801 0 134.926 2.12 134.926 4.726V35.268C134.928 37.872 132.803 39.989 130.198 39.989Z" fill="#A6A6A6"/>
<path d="M134.032 35.2681C134.032 37.3841 132.318 39.0981 130.198 39.0981H4.72901C2.61001 39.0981 0.890015 37.3841 0.890015 35.2681V4.72514C0.890015 2.61014 2.61001 0.890137 4.72901 0.890137H130.197C132.318 0.890137 134.031 2.61014 134.031 4.72514L134.032 35.2681Z" fill="black"/>
<path d="M30.128 19.7842C30.099 16.5612 32.767 14.9932 32.889 14.9202C31.378 12.7172 29.036 12.4162 28.213 12.3922C26.246 12.1852 24.338 13.5692 23.336 13.5692C22.314 13.5692 20.771 12.4122 19.108 12.4462C16.968 12.4792 14.966 13.7182 13.868 15.6422C11.602 19.5652 13.292 25.3302 15.463 28.5012C16.549 30.0552 17.818 31.7882 19.479 31.7272C21.104 31.6612 21.711 30.6922 23.672 30.6922C25.615 30.6922 26.185 31.7272 27.879 31.6882C29.623 31.6612 30.721 30.1282 31.769 28.5612C33.024 26.7822 33.528 25.0282 33.548 24.9382C33.508 24.9242 30.162 23.6462 30.128 19.7842Z" fill="white"/>
<path d="M26.928 10.3058C27.802 9.2128 28.4 7.7258 28.234 6.2168C26.969 6.2728 25.387 7.0918 24.476 8.1608C23.67 9.1028 22.95 10.6468 23.136 12.0988C24.557 12.2048 26.016 11.3818 26.928 10.3058Z" fill="white"/>
<path d="M130.198 0H62.993L89.316 39.989H130.198C132.802 39.989 134.927 37.872 134.927 35.265V4.726C134.928 2.12 132.803 0 130.198 0Z" fill="url(#paint0_linear_495_1352)"/>
<path d="M53.665 31.5038H51.394L50.15 27.5948H45.826L44.641 31.5038H42.43L46.715 18.1958H49.361L53.665 31.5038ZM49.775 25.9548L48.65 22.4798C48.531 22.1248 48.307 21.2888 47.979 19.9728H47.939C47.807 20.5388 47.596 21.3748 47.307 22.4798L46.201 25.9548H49.775Z" fill="white"/>
<path d="M64.663 26.588C64.663 28.22 64.22 29.51 63.333 30.457C62.539 31.3 61.552 31.721 60.375 31.721C59.104 31.721 58.19 31.268 57.635 30.36V35.395H55.503V25.062C55.503 24.037 55.476 22.986 55.424 21.908H57.299L57.418 23.429H57.458C58.169 22.283 59.248 21.71 60.696 21.71C61.828 21.71 62.773 22.157 63.529 23.052C64.284 23.949 64.663 25.127 64.663 26.588ZM62.491 26.666C62.491 25.732 62.281 24.962 61.859 24.355C61.398 23.724 60.779 23.408 60.003 23.408C59.477 23.408 58.999 23.584 58.572 23.931C58.144 24.281 57.864 24.738 57.733 25.304C57.667 25.568 57.634 25.783 57.634 25.953V27.554C57.634 28.251 57.848 28.84 58.276 29.322C58.704 29.802 59.26 30.043 59.944 30.043C60.747 30.043 61.372 29.732 61.819 29.115C62.267 28.496 62.491 27.68 62.491 26.666Z" fill="white"/>
<path d="M75.7 26.588C75.7 28.22 75.257 29.51 74.37 30.457C73.575 31.3 72.589 31.721 71.411 31.721C70.14 31.721 69.226 31.268 68.671 30.36V35.395H66.539V25.062C66.539 24.037 66.512 22.986 66.46 21.908H68.335L68.454 23.429H68.494C69.204 22.283 70.283 21.71 71.732 21.71C72.863 21.71 73.808 22.157 74.566 23.052C75.32 23.949 75.7 25.127 75.7 26.588ZM73.527 26.666C73.527 25.732 73.316 24.962 72.894 24.355C72.433 23.724 71.816 23.408 71.04 23.408C70.514 23.408 70.036 23.584 69.607 23.931C69.179 24.281 68.9 24.738 68.769 25.304C68.704 25.568 68.669 25.783 68.669 25.953V27.554C68.669 28.251 68.884 28.84 69.31 29.322C69.738 29.801 70.294 30.043 70.98 30.043C71.784 30.043 72.409 29.732 72.855 29.115C73.303 28.496 73.527 27.68 73.527 26.666Z" fill="white"/>
<path d="M88.04 27.771C88.04 28.904 87.644 29.825 86.857 30.536C85.991 31.312 84.782 31.701 83.232 31.701C81.8 31.701 80.652 31.425 79.786 30.872L80.279 29.095C81.214 29.649 82.241 29.925 83.359 29.925C84.163 29.925 84.788 29.743 85.234 29.382C85.681 29.02 85.907 28.536 85.907 27.932C85.907 27.391 85.72 26.938 85.353 26.569C84.984 26.201 84.374 25.858 83.517 25.543C81.187 24.674 80.021 23.403 80.021 21.731C80.021 20.639 80.433 19.745 81.255 19.046C82.077 18.348 83.167 17.999 84.523 17.999C85.734 17.999 86.743 18.21 87.544 18.631L87.009 20.369C86.255 19.961 85.404 19.757 84.452 19.757C83.7 19.757 83.11 19.942 82.688 20.31C82.333 20.639 82.153 21.04 82.153 21.516C82.153 22.041 82.358 22.477 82.766 22.819C83.12 23.134 83.766 23.477 84.7 23.845C85.846 24.307 86.688 24.845 87.227 25.463C87.77 26.081 88.04 26.852 88.04 27.771Z" fill="white"/>
<path d="M95.107 23.5081H92.757V28.1671C92.757 29.3521 93.171 29.9431 94.001 29.9431C94.382 29.9431 94.698 29.9111 94.948 29.8441L95.007 31.4631C94.587 31.6201 94.034 31.6991 93.349 31.6991C92.507 31.6991 91.849 31.4421 91.374 30.9281C90.901 30.4141 90.663 29.5531 90.663 28.3411V23.5041H89.263V21.9041H90.663V20.1471L92.757 19.5151V21.9041H95.107V23.5081Z" fill="white"/>
<path d="M105.689 26.6269C105.689 28.1019 105.267 29.3129 104.425 30.2599C103.544 31.2349 102.372 31.7209 100.911 31.7209C99.501 31.7209 98.38 31.2539 97.544 30.3209C96.708 29.3859 96.29 28.2079 96.29 26.7869C96.29 25.2999 96.722 24.0819 97.583 23.1349C98.446 22.1869 99.608 21.7129 101.069 21.7129C102.477 21.7129 103.608 22.1809 104.464 23.1149C105.282 24.0209 105.689 25.1909 105.689 26.6269ZM103.479 26.6759C103.479 25.7969 103.289 25.0429 102.908 24.4119C102.461 23.6499 101.821 23.2689 100.992 23.2689C100.138 23.2689 99.483 23.6499 99.037 24.4119C98.655 25.0429 98.465 25.8099 98.465 26.7159C98.465 27.5959 98.655 28.3519 99.037 28.9809C99.498 29.7429 100.141 30.1239 100.974 30.1239C101.789 30.1239 102.428 29.7349 102.89 28.9619C103.282 28.3159 103.479 27.5569 103.479 26.6759Z" fill="white"/>
<path d="M112.622 23.783C112.411 23.744 112.185 23.724 111.95 23.724C111.2 23.724 110.62 24.006 110.212 24.574C109.858 25.074 109.68 25.706 109.68 26.469V31.504H107.548V24.93C107.548 23.825 107.527 22.817 107.486 21.909H109.343L109.421 23.745H109.48C109.706 23.114 110.06 22.605 110.546 22.224C111.021 21.881 111.534 21.71 112.087 21.71C112.284 21.71 112.462 21.724 112.62 21.749L112.622 23.783Z" fill="white"/>
<path d="M122.157 26.2518C122.157 26.6338 122.132 26.9558 122.079 27.2188H115.683C115.707 28.1668 116.017 28.8928 116.611 29.3928C117.15 29.8388 117.847 30.0628 118.703 30.0628C119.65 30.0628 120.514 29.9128 121.291 29.6098L121.625 31.0888C120.717 31.4848 119.645 31.6818 118.408 31.6818C116.92 31.6818 115.752 31.2438 114.902 30.3698C114.054 29.4948 113.629 28.3188 113.629 26.8458C113.629 25.3998 114.024 24.1948 114.815 23.2338C115.643 22.2078 116.762 21.6948 118.17 21.6948C119.553 21.6948 120.6 22.2078 121.311 23.2338C121.874 24.0468 122.157 25.0548 122.157 26.2518ZM120.124 25.6988C120.139 25.0658 119.999 24.5208 119.71 24.0598C119.341 23.4658 118.773 23.1698 118.012 23.1698C117.315 23.1698 116.747 23.4588 116.315 24.0388C115.96 24.4998 115.749 25.0538 115.684 25.6968L120.124 25.6988Z" fill="white"/>
<path d="M48.747 13.4331H47.63L47.019 11.5121H44.894L44.311 13.4331H43.224L45.33 6.89209H46.63L48.747 13.4331ZM46.835 10.7061L46.282 8.99809C46.224 8.82309 46.117 8.41609 45.952 7.76609H45.932C45.864 8.04709 45.767 8.45509 45.621 8.99809L45.078 10.7061H46.835Z" fill="white"/>
<path d="M54.013 8.71729L52.227 13.4333H51.208L49.48 8.71729H50.606L51.412 11.2113C51.548 11.6283 51.664 12.0263 51.751 12.4043H51.78C51.858 12.0653 51.974 11.6673 52.119 11.2113L52.915 8.71729H54.013Z" fill="white"/>
<path d="M57.815 13.4331L57.737 12.8901H57.708C57.388 13.3271 56.922 13.5401 56.33 13.5401C55.486 13.5401 54.884 12.9481 54.884 12.1521C54.884 10.9881 55.893 10.3861 57.64 10.3861V10.2991C57.64 9.67812 57.31 9.36712 56.66 9.36712C56.194 9.36712 55.786 9.48412 55.428 9.71712L55.215 9.02812C55.652 8.75612 56.195 8.62012 56.836 8.62012C58.068 8.62012 58.69 9.27012 58.69 10.5711V12.3081C58.69 12.7841 58.71 13.1531 58.758 13.4341L57.815 13.4331ZM57.669 11.0841C56.504 11.0841 55.922 11.3661 55.922 12.0351C55.922 12.5301 56.223 12.7721 56.64 12.7721C57.174 12.7721 57.669 12.3651 57.669 11.8121V11.0841Z" fill="white"/>
<path d="M61.024 7.93999C60.675 7.93999 60.403 7.66799 60.403 7.30899C60.403 6.94999 60.684 6.68799 61.044 6.68799C61.403 6.68799 61.694 6.94999 61.684 7.30899C61.684 7.68799 61.413 7.93999 61.024 7.93999ZM61.568 13.433H60.52V8.71699H61.568V13.433Z" fill="white"/>
<path d="M64.478 13.4332H63.43V6.55322H64.478V13.4332Z" fill="white"/>
<path d="M68.932 13.4331L68.854 12.8901H68.825C68.505 13.3271 68.039 13.5401 67.447 13.5401C66.603 13.5401 66.001 12.9481 66.001 12.1521C66.001 10.9881 67.01 10.3861 68.757 10.3861V10.2991C68.757 9.67814 68.427 9.36714 67.777 9.36714C67.311 9.36714 66.903 9.48414 66.545 9.71714L66.331 9.02714C66.768 8.75514 67.311 8.61914 67.952 8.61914C69.184 8.61914 69.806 9.26914 69.806 10.5701V12.3071C69.806 12.7831 69.827 13.1521 69.873 13.4331H68.932ZM68.786 11.0841C67.621 11.0841 67.039 11.3661 67.039 12.0351C67.039 12.5301 67.34 12.7721 67.757 12.7721C68.291 12.7721 68.786 12.3651 68.786 11.8121V11.0841Z" fill="white"/>
<path d="M74.052 13.5402C73.383 13.5402 72.889 13.2582 72.569 12.7052H72.548L72.488 13.4332H71.595C71.624 13.0552 71.634 12.6272 71.634 12.1622V6.55322H72.683V9.40722H72.703C73.014 8.88322 73.517 8.62122 74.207 8.62122C75.343 8.62122 76.139 9.59222 76.139 11.0082C76.139 12.4722 75.255 13.5402 74.052 13.5402ZM73.839 9.44422C73.236 9.44422 72.684 9.96822 72.684 10.6962V11.5212C72.684 12.1712 73.18 12.7052 73.821 12.7052C74.606 12.7052 75.073 12.0652 75.073 11.0462C75.072 10.0952 74.586 9.44422 73.839 9.44422Z" fill="white"/>
<path d="M78.736 13.4332H77.689V6.55322H78.736V13.4332Z" fill="white"/>
<path d="M84.441 11.3274H81.295C81.316 12.2204 81.906 12.7244 82.78 12.7244C83.246 12.7244 83.673 12.6464 84.051 12.5014L84.214 13.2294C83.768 13.4234 83.244 13.5204 82.633 13.5204C81.157 13.5204 80.284 12.5884 80.284 11.1434C80.284 9.69735 81.178 8.61035 82.515 8.61035C83.718 8.61035 84.476 9.50335 84.476 10.8524C84.48 11.0364 84.471 11.2014 84.441 11.3274ZM83.48 10.5804C83.48 9.85235 83.111 9.33835 82.441 9.33835C81.839 9.33835 81.365 9.86235 81.295 10.5804H83.48Z" fill="white"/>
<path d="M90.793 13.5401C89.415 13.5401 88.522 12.5111 88.522 11.1141C88.522 9.65812 89.434 8.62012 90.872 8.62012C92.229 8.62012 93.143 9.60012 93.143 11.0371C93.143 12.5111 92.201 13.5401 90.793 13.5401ZM90.833 9.38612C90.076 9.38612 89.591 10.0941 89.591 11.0841C89.591 12.0551 90.086 12.7631 90.823 12.7631C91.56 12.7631 92.054 12.0061 92.054 11.0641C92.055 10.1041 91.57 9.38612 90.833 9.38612Z" fill="white"/>
<path d="M98.777 13.4331H97.73V10.7251C97.73 9.89114 97.41 9.47314 96.779 9.47314C96.158 9.47314 95.73 10.0071 95.73 10.6281V13.4331H94.683V10.0651C94.683 9.64814 94.672 9.20114 94.644 8.71614H95.566L95.615 9.44414H95.644C95.924 8.94014 96.498 8.61914 97.138 8.61914C98.127 8.61914 98.777 9.37614 98.777 10.6081V13.4331Z" fill="white"/>
<path d="M105.634 9.50299H104.481V11.793C104.481 12.376 104.684 12.667 105.091 12.667C105.276 12.667 105.432 12.647 105.557 12.618L105.586 13.414C105.382 13.492 105.109 13.531 104.772 13.531C103.946 13.531 103.453 13.075 103.453 11.881V9.50299H102.765V8.71699H103.453V7.85299L104.481 7.54199V8.71599H105.634V9.50299Z" fill="white"/>
<path d="M111.184 13.4332H110.135V10.7452C110.135 9.90122 109.815 9.47422 109.184 9.47422C108.641 9.47422 108.137 9.84322 108.137 10.5902V13.4332H107.088V6.55322H108.137V9.38622H108.157C108.487 8.87222 108.963 8.61922 109.574 8.61922C110.573 8.61922 111.184 9.39522 111.184 10.6282V13.4332Z" fill="white"/>
<path d="M116.539 11.3274H113.394C113.414 12.2204 114.004 12.7244 114.878 12.7244C115.345 12.7244 115.771 12.6464 116.149 12.5014L116.313 13.2294C115.867 13.4234 115.342 13.5204 114.731 13.5204C113.255 13.5204 112.382 12.5884 112.382 11.1434C112.382 9.69735 113.276 8.61035 114.613 8.61035C115.816 8.61035 116.574 9.50335 116.574 10.8524C116.578 11.0364 116.568 11.2014 116.539 11.3274ZM115.578 10.5804C115.578 9.85235 115.21 9.33835 114.54 9.33835C113.937 9.33835 113.463 9.86235 113.394 10.5804H115.578Z" fill="white"/>
<defs>
<linearGradient id="paint0_linear_495_1352" x1="98.9609" y1="40.0972" x2="98.9609" y2="4.0513" gradientUnits="userSpaceOnUse">
<stop stop-color="#1A1A1A" stop-opacity="0.1"/>
<stop offset="0.1235" stop-color="#212121" stop-opacity="0.1506"/>
<stop offset="0.3085" stop-color="#353535" stop-opacity="0.2265"/>
<stop offset="0.5321" stop-color="#575757" stop-opacity="0.3181"/>
<stop offset="0.7834" stop-color="#858585" stop-opacity="0.4212"/>
<stop offset="1" stop-color="#B3B3B3" stop-opacity="0.51"/>
</linearGradient>
</defs>
</svg>
