<svg width="29" height="22" viewBox="0 0 29 22" fill="none" xmlns="http://www.w3.org/2000/svg">
<path id="Vector" d="M28.3999 6.67503C28.3999 3.64185 25.1668 1.18332 21.178 1.18332C19.8753 1.1832 18.5969 1.45101 17.4781 1.95838C16.3593 2.46575 15.4418 3.19379 14.8227 4.06537C14.2037 3.19379 13.2862 2.46575 12.1674 1.95838C11.0486 1.45101 9.77015 1.1832 8.46749 1.18332C4.4787 1.18332 1.24561 3.64185 1.24561 6.67503C1.24561 7.97987 1.84647 9.17662 2.84598 10.119L2.84366 10.1203L14.8227 21.4104L26.8018 10.1203L26.7995 10.119C27.8366 9.14455 28.4016 7.92862 28.3999 6.67503Z" stroke="black" stroke-miterlimit="10" stroke-linejoin="round"/>
</svg>
