<svg width="26" height="21" viewBox="0 0 26 21" fill="none" xmlns="http://www.w3.org/2000/svg">
<path d="M25 6.15856C25 3.30938 22.1425 1 18.617 1C17.4657 0.999886 16.3357 1.25145 15.3469 1.72804C14.358 2.20463 13.5471 2.8885 13 3.70721C12.4529 2.8885 11.6419 2.20463 10.6531 1.72804C9.66426 1.25145 8.53432 0.999886 7.38298 1C3.85753 1 1 3.30938 1 6.15856C1 7.38423 1.53106 8.50838 2.41447 9.39359L2.41243 9.39483L13 20L23.5876 9.39483L23.5855 9.39359C24.5021 8.47826 25.0015 7.33609 25 6.15856Z" fill="#262521" stroke="#262521" stroke-miterlimit="10" stroke-linejoin="round"/>
</svg>
