<svg width="26" height="26" viewBox="0 0 26 26" fill="none" xmlns="http://www.w3.org/2000/svg">
<path d="M7.86108 0.5H18.3611C22.3611 0.5 25.6111 3.75 25.6111 7.75V18.25C25.6111 20.1728 24.8472 22.0169 23.4876 23.3765C22.128 24.7362 20.2839 25.5 18.3611 25.5H7.86108C3.86108 25.5 0.611084 22.25 0.611084 18.25V7.75C0.611084 5.82718 1.37492 3.98311 2.73456 2.62348C4.0942 1.26384 5.93826 0.5 7.86108 0.5ZM7.61108 3C6.41761 3 5.27302 3.47411 4.4291 4.31802C3.58519 5.16193 3.11108 6.30653 3.11108 7.5V18.5C3.11108 20.9875 5.12358 23 7.61108 23H18.6111C19.8046 23 20.9492 22.5259 21.7931 21.682C22.637 20.8381 23.1111 19.6935 23.1111 18.5V7.5C23.1111 5.0125 21.0986 3 18.6111 3H7.61108ZM19.6736 4.875C20.088 4.875 20.4854 5.03962 20.7784 5.33265C21.0715 5.62567 21.2361 6.0231 21.2361 6.4375C21.2361 6.8519 21.0715 7.24933 20.7784 7.54235C20.4854 7.83538 20.088 8 19.6736 8C19.2592 8 18.8618 7.83538 18.5687 7.54235C18.2757 7.24933 18.1111 6.8519 18.1111 6.4375C18.1111 6.0231 18.2757 5.62567 18.5687 5.33265C18.8618 5.03962 19.2592 4.875 19.6736 4.875ZM13.1111 6.75C14.7687 6.75 16.3584 7.40848 17.5305 8.58058C18.7026 9.75268 19.3611 11.3424 19.3611 13C19.3611 14.6576 18.7026 16.2473 17.5305 17.4194C16.3584 18.5915 14.7687 19.25 13.1111 19.25C11.4535 19.25 9.86377 18.5915 8.69167 17.4194C7.51956 16.2473 6.86108 14.6576 6.86108 13C6.86108 11.3424 7.51956 9.75268 8.69167 8.58058C9.86377 7.40848 11.4535 6.75 13.1111 6.75ZM13.1111 9.25C12.1165 9.25 11.1627 9.64509 10.4594 10.3483C9.75617 11.0516 9.36108 12.0054 9.36108 13C9.36108 13.9946 9.75617 14.9484 10.4594 15.6517C11.1627 16.3549 12.1165 16.75 13.1111 16.75C14.1056 16.75 15.0595 16.3549 15.7627 15.6517C16.466 14.9484 16.8611 13.9946 16.8611 13C16.8611 12.0054 16.466 11.0516 15.7627 10.3483C15.0595 9.64509 14.1056 9.25 13.1111 9.25Z" fill="#F3ECD9"/>
</svg>
