<svg width="35" height="31" viewBox="0 0 35 31" fill="none" xmlns="http://www.w3.org/2000/svg">
<path d="M21.9896 5.78571H22.8542H23.4896H32.6667V28.5H1.5V5.78571H10.6771H11.3125H12.1771H12.8125H21.3542H21.9896Z" stroke="#513C22" stroke-width="3"/>
<path d="M13.08 10.7C13.08 10.7 12.681 11.422 12.681 13.93V17.35L18.837 13.132C20.148 12.22 20.87 11.574 21.516 10.7L25.62 10.681C24.043 11.232 22.447 12.182 21.611 12.752L17.906 15.336L23.055 20.2C25.449 22.461 26.912 23.563 28.033 24H21.079C20.87 23.43 19.635 22.423 18.799 21.606L14.676 17.578L12.681 18.965V20.789C12.681 23.278 13.08 24 13.08 24H8.425C8.425 24 8.786 23.278 8.786 20.789V13.93C8.786 11.422 8.425 10.7 8.425 10.7H13.08Z" fill="#513C22"/>
</svg>
