<svg width="144" height="32" viewBox="0 0 144 32" fill="none" xmlns="http://www.w3.org/2000/svg">
<path d="M5.76 6.4C5.76 6.4 5.382 7.084 5.382 9.46V12.7L11.214 8.704C12.456 7.84 13.14 7.228 13.752 6.4L17.64 6.382C16.146 6.904 14.634 7.804 13.842 8.344L10.332 10.792L15.21 15.4C17.478 17.542 18.864 18.586 19.926 19H13.338C13.14 18.46 11.97 17.506 11.178 16.732L7.272 12.916L5.382 14.23V15.958C5.382 18.316 5.76 19 5.76 19H1.35C1.35 19 1.692 18.316 1.692 15.958V9.46C1.692 7.084 1.35 6.4 1.35 6.4H5.76ZM31.3855 19.18C31.3675 18.352 31.3135 17.524 31.2955 16.786C29.4235 17.794 26.0035 19.36 24.7255 19.36C21.0715 19.36 20.0995 18.136 20.0995 17.002C20.0995 15.112 23.3395 13.744 26.9755 13.744C28.1095 13.744 30.1075 13.852 31.3135 13.978V13.834C31.3135 12.16 30.2875 11.386 27.6595 11.386C25.3915 11.386 23.3035 12.16 21.2335 13.978H21.1975L20.5855 11.296C21.6835 10.756 24.9415 9.64 28.2175 9.64C33.0775 9.64 34.8055 11.548 34.8055 13.492V16.138C34.8055 17.956 35.1475 18.478 35.2915 18.55V18.586L31.3855 19.18ZM23.8975 16.138C23.8975 16.588 24.4735 17.128 25.9315 17.128C27.2635 17.128 29.0275 16.894 31.2955 15.994L31.3135 14.716C25.2115 14.5 23.8975 15.202 23.8975 16.138ZM37.3793 19.18C37.3793 19.162 37.3973 19.144 37.3973 19.144C37.6853 18.388 37.7393 17.218 37.7393 15.004V8.722C37.7393 7.426 37.4873 6.922 37.2893 6.688L41.1233 5.608V12.214C43.7333 10.378 45.8933 9.64 46.6673 9.64C51.2033 9.64 53.4353 11.188 53.4353 14.032C53.4353 17.38 49.2233 19.252 45.5513 19.252C42.8873 19.252 41.2853 18.442 40.3493 18.046L37.4333 19.162L37.3793 19.18ZM41.1233 16.39C41.9873 17.254 43.1753 18.28 45.8573 18.28C47.5853 18.28 49.8173 17.344 49.8173 15.202C49.8173 12.862 47.4773 11.836 45.6593 11.836C45.0293 11.836 43.2833 11.728 41.1233 13.006V16.39ZM62.4583 19.198C58.1563 19.198 55.0603 17.452 55.0603 15.112C55.0603 12.484 59.0023 9.64 64.6363 9.64C68.9203 9.64 72.0343 11.368 72.0343 13.546C72.0343 16.336 68.0923 19.198 62.4583 19.198ZM64.9243 18.01C66.6523 18.01 68.6503 17.182 68.6503 15.274C68.6503 12.502 65.2843 10.846 62.1883 10.846C60.4603 10.846 58.4623 11.638 58.4623 13.546C58.4623 15.724 60.8203 18.01 64.9243 18.01ZM74.2075 19C74.3335 18.55 74.4415 17.974 74.4775 14.842L74.4955 12.844C74.5135 11.548 74.0815 10.756 74.0275 10.72L77.8615 9.64V11.962C78.6355 11.314 82.6855 9.586 83.6395 9.586C86.3035 9.586 88.1395 10.198 88.7875 11.962C89.8135 11.26 93.8995 9.586 94.8175 9.586C98.2195 9.586 100.272 10.576 100.272 13.618V14.842C100.272 17.992 100.416 18.586 100.542 19H96.6355C96.7615 18.604 96.8875 18.1 96.8875 15.688V14.41C96.8875 12.34 95.3755 11.674 93.2695 11.674C92.2255 11.674 90.4615 11.962 89.0035 12.79C89.0395 13.042 89.0575 13.312 89.0575 13.618V14.842C89.0575 17.992 89.2015 18.586 89.3275 19H85.4215C85.5475 18.604 85.6735 18.1 85.6735 15.688V14.41C85.6735 12.34 84.1615 11.674 82.2715 11.674C81.1915 11.674 79.3555 11.962 77.8615 12.862V15.148C77.8615 18.388 78.0235 18.55 78.1135 19H74.2075ZM114.073 19.18C114.055 18.352 114.001 17.524 113.983 16.786C112.111 17.794 108.691 19.36 107.413 19.36C103.759 19.36 102.787 18.136 102.787 17.002C102.787 15.112 106.027 13.744 109.663 13.744C110.797 13.744 112.795 13.852 114.001 13.978V13.834C114.001 12.16 112.975 11.386 110.347 11.386C108.079 11.386 105.991 12.16 103.921 13.978H103.885L103.273 11.296C104.371 10.756 107.629 9.64 110.905 9.64C115.765 9.64 117.493 11.548 117.493 13.492V16.138C117.493 17.956 117.835 18.478 117.979 18.55V18.586L114.073 19.18ZM106.585 16.138C106.585 16.588 107.161 17.128 108.619 17.128C109.951 17.128 111.715 16.894 113.983 15.994L114.001 14.716C107.899 14.5 106.585 15.202 106.585 16.138ZM120.333 19C120.459 18.55 120.567 17.974 120.603 14.842L120.621 12.844C120.639 11.548 120.207 10.756 120.153 10.72L123.987 9.64V11.962C124.761 11.314 128.991 9.586 129.945 9.586C133.347 9.586 135.399 10.576 135.399 13.618V14.842C135.399 17.992 135.543 18.586 135.669 19H131.763C131.889 18.604 132.015 18.1 132.015 15.688V14.41C132.015 12.34 130.503 11.674 128.397 11.674C127.317 11.674 125.481 11.962 123.987 12.862V15.148C123.987 18.388 124.149 18.55 124.239 19H120.333ZM138.106 19C138.232 18.55 138.34 17.974 138.376 14.842L138.394 12.844C138.412 11.548 137.98 10.756 137.926 10.72L141.778 9.64L141.76 14.842C141.742 18.082 141.94 18.55 142.03 19H138.106ZM139.96 8.074C138.79 8.074 137.854 7.462 137.854 6.688C137.854 5.932 138.79 5.32 139.96 5.32C141.112 5.32 142.048 5.932 142.048 6.688C142.048 7.462 141.112 8.074 139.96 8.074Z" fill="#262521"/>
<path d="M76.664 23.311C78.05 23.3 79.48 23.333 80.602 23.256L80.943 25.148L80.855 25.181C80.283 24.268 78.963 23.894 77.434 23.806C77.39 24.081 77.346 24.543 77.346 25.159V29.141C77.346 30.582 77.577 31 77.577 31H75.74C75.74 31 75.96 30.582 75.96 29.141V25.159C75.96 24.543 75.927 24.081 75.872 23.806C74.343 23.894 73.012 24.268 72.44 25.181L72.363 25.148L72.704 23.256C73.826 23.333 75.278 23.3 76.664 23.311ZM86.7647 27.92C86.7647 26.743 86.1817 26.237 85.1917 26.226C84.5097 26.215 83.6957 26.534 83.1237 27.128V28.514C83.1237 30.494 83.2337 30.725 83.2887 31H81.6937C81.7707 30.725 81.8477 30.373 81.8587 28.459L81.8807 24.642C81.8807 23.85 81.6167 23.399 81.5837 23.377L83.1347 22.717L83.1237 26.589C83.5967 26.006 84.9277 25.269 85.7527 25.269C87.0617 25.269 88.0297 25.83 88.0297 27.711V28.459C88.0297 30.373 88.1177 30.736 88.1947 31H86.5997C86.6657 30.736 86.7647 30.439 86.7647 28.624V27.92ZM89.45 31C89.527 30.725 89.593 30.373 89.615 28.459L89.626 27.238C89.637 26.446 89.373 25.962 89.34 25.94L90.88 25.28L90.869 28.459C90.858 30.439 90.979 30.725 91.034 31H89.45ZM90.187 24.4C89.736 24.4 89.373 24.103 89.373 23.729C89.373 23.355 89.736 23.058 90.187 23.058C90.638 23.058 90.99 23.355 90.99 23.729C90.99 24.103 90.638 24.4 90.187 24.4ZM92.2747 31C92.3517 30.725 92.4177 30.373 92.4397 28.459L92.4507 27.238C92.4617 26.446 92.1977 25.962 92.1647 25.94L93.7157 25.28V26.589C94.1777 26.006 95.4977 25.258 96.2677 25.258C97.7637 25.258 98.6107 25.907 98.6107 27.711V28.459C98.6107 30.373 98.6987 30.736 98.7757 31H97.1807C97.2467 30.736 97.3457 30.439 97.3457 28.624V27.92C97.3457 26.655 96.7627 26.226 95.7727 26.215C95.1017 26.215 94.2767 26.578 93.7047 27.183V28.514C93.7047 30.494 93.8147 30.725 93.8697 31H92.2747ZM100.031 31C100.108 30.725 100.185 30.373 100.196 28.459L100.207 24.708C100.207 23.916 99.9541 23.487 99.9211 23.465L101.461 22.805L101.45 28.052L104.211 26.017C104.442 25.819 104.673 25.632 104.794 25.412H106.213V25.445C105.597 25.676 104.607 26.424 104.607 26.424L103.463 27.271L105.366 29.702C105.773 30.219 106.18 30.604 106.73 30.967V31L104.541 31.011C104.431 30.681 104.31 30.472 104.046 30.109L102.462 28.019L101.45 28.767C101.461 30.472 101.56 30.736 101.615 31H100.031ZM110.073 25.588C110.942 25.522 111.888 24.917 112.317 23.982H112.372V25.467L115.001 25.346L114.902 26.05L112.372 25.973V28.679C112.372 29.823 112.779 30.34 113.714 30.34C114.473 30.34 115.111 29.889 115.496 29.438L115.54 29.46C115.133 30.285 114.473 31.132 113.065 31.132C111.844 31.132 111.118 30.406 111.118 29.174V25.94L110.073 25.907V25.588ZM123.004 31.066L121.035 27.106L119.308 30.978L118.681 31.066L116.459 26.6C116.272 26.215 116.085 25.841 115.788 25.412H117.603C117.614 25.731 117.691 26.039 117.922 26.578L119.297 29.735L120.485 26.875C120.562 26.644 120.628 26.468 120.672 26.303C120.518 26.028 120.353 25.742 120.111 25.412H121.882C121.926 25.764 122.025 26.072 122.234 26.578L123.609 29.735L124.797 26.875C125.039 26.281 125.138 25.951 125.237 25.412H126.282C125.952 25.907 125.677 26.391 125.479 26.853L123.598 31.011L123.004 31.066ZM127.048 31C127.125 30.725 127.191 30.373 127.213 28.459L127.224 27.238C127.235 26.446 126.971 25.962 126.938 25.94L128.478 25.28L128.467 28.459C128.456 30.439 128.577 30.725 128.632 31H127.048ZM127.785 24.4C127.334 24.4 126.971 24.103 126.971 23.729C126.971 23.355 127.334 23.058 127.785 23.058C128.236 23.058 128.588 23.355 128.588 23.729C128.588 24.103 128.236 24.4 127.785 24.4ZM135.246 27.502C134.586 26.27 133.585 25.852 132.749 25.852C131.858 25.852 130.835 26.325 130.835 27.799C130.835 29.24 131.803 30.208 133.431 30.208C134.366 30.208 135.246 29.889 135.84 29.229L135.884 29.251C135.29 30.527 134.223 31.143 132.749 31.143C130.824 31.143 129.515 30.065 129.515 28.338C129.515 26.578 131.154 25.28 132.936 25.28C133.981 25.28 134.674 25.434 135.576 26.006L135.279 27.502H135.246ZM139.879 25.852C138.955 25.852 138.119 26.325 138.075 27.645L141.617 27.502C141.419 26.27 140.638 25.852 139.879 25.852ZM136.755 28.305C136.755 26.457 138.46 25.28 140.176 25.28C141.54 25.28 143.025 26.072 143.025 28.085L138.086 28.074C138.229 29.383 139.208 30.208 140.671 30.208C141.606 30.208 142.574 29.889 143.168 29.229L143.212 29.251C142.607 30.538 141.507 31.143 139.989 31.143C138.031 31.143 136.755 30.032 136.755 28.305Z" fill="#262521"/>
<line y1="27.5" x2="70" y2="27.5" stroke="#262521"/>
</svg>
