<svg width="312" height="79" viewBox="0 0 312 79" fill="none" xmlns="http://www.w3.org/2000/svg">
<path d="M13.4146 12.7475C13.4146 12.7475 12.5956 14.2295 12.5956 19.3775V26.3975L25.2316 17.7395C27.9226 15.8675 29.4046 14.5415 30.7306 12.7475L39.1546 12.7085C35.9176 13.8395 32.6416 15.7895 30.9256 16.9595L23.3206 22.2635L33.8896 32.2475C38.8036 36.8885 41.8066 39.1505 44.1076 40.0475H29.8336C29.4046 38.8775 26.8696 36.8105 25.1536 35.1335L16.6906 26.8655L12.5956 29.7125V33.4565C12.5956 38.5655 13.4146 40.0475 13.4146 40.0475H3.85957C3.85957 40.0475 4.60057 38.5655 4.60057 33.4565V19.3775C4.60057 14.2295 3.85957 12.7475 3.85957 12.7475H13.4146ZM68.9366 40.4375C68.8976 38.6435 68.7806 36.8495 68.7416 35.2505C64.6856 37.4345 57.2756 40.8275 54.5066 40.8275C46.5896 40.8275 44.4836 38.1755 44.4836 35.7185C44.4836 31.6235 51.5036 28.6595 59.3816 28.6595C61.8386 28.6595 66.1676 28.8935 68.7806 29.1665V28.8545C68.7806 25.2275 66.5576 23.5505 60.8636 23.5505C55.9496 23.5505 51.4256 25.2275 46.9406 29.1665H46.8626L45.5366 23.3555C47.9156 22.1855 54.9746 19.7675 62.0726 19.7675C72.6026 19.7675 76.3466 23.9015 76.3466 28.1135V33.8465C76.3466 37.7855 77.0876 38.9165 77.3996 39.0725V39.1505L68.9366 40.4375ZM52.7126 33.8465C52.7126 34.8215 53.9606 35.9915 57.1196 35.9915C60.0056 35.9915 63.8276 35.4845 68.7416 33.5345L68.7806 30.7655C55.5596 30.2975 52.7126 31.8185 52.7126 33.8465ZM81.9229 40.4375C81.9229 40.3985 81.9619 40.3595 81.9619 40.3595C82.5859 38.7215 82.7029 36.1865 82.7029 31.3895V17.7785C82.7029 14.9705 82.1569 13.8785 81.7279 13.3715L90.0349 11.0315V25.3445C95.6899 21.3665 100.37 19.7675 102.047 19.7675C111.875 19.7675 116.711 23.1215 116.711 29.2835C116.711 36.5375 107.585 40.5935 99.6289 40.5935C93.8569 40.5935 90.3859 38.8385 88.3579 37.9805L82.0399 40.3985L81.9229 40.4375ZM90.0349 34.3925C91.9069 36.2645 94.4809 38.4875 100.292 38.4875C104.036 38.4875 108.872 36.4595 108.872 31.8185C108.872 26.7485 103.802 24.5255 99.8629 24.5255C98.4979 24.5255 94.7149 24.2915 90.0349 27.0605V34.3925ZM136.261 40.4765C126.94 40.4765 120.232 36.6935 120.232 31.6235C120.232 25.9295 128.773 19.7675 140.98 19.7675C150.262 19.7675 157.009 23.5115 157.009 28.2305C157.009 34.2755 148.468 40.4765 136.261 40.4765ZM141.604 37.9025C145.348 37.9025 149.677 36.1085 149.677 31.9745C149.677 25.9685 142.384 22.3805 135.676 22.3805C131.932 22.3805 127.603 24.0965 127.603 28.2305C127.603 32.9495 132.712 37.9025 141.604 37.9025ZM161.718 40.0475C161.991 39.0725 162.225 37.8245 162.303 31.0385L162.342 26.7095C162.381 23.9015 161.445 22.1855 161.328 22.1075L169.635 19.7675V24.7985C171.312 23.3945 180.087 19.6505 182.154 19.6505C187.926 19.6505 191.904 20.9765 193.308 24.7985C195.531 23.2775 204.384 19.6505 206.373 19.6505C213.744 19.6505 218.19 21.7955 218.19 28.3865V31.0385C218.19 37.8635 218.502 39.1505 218.775 40.0475H210.312C210.585 39.1895 210.858 38.0975 210.858 32.8715V30.1025C210.858 25.6175 207.582 24.1745 203.019 24.1745C200.757 24.1745 196.935 24.7985 193.776 26.5925C193.854 27.1385 193.893 27.7235 193.893 28.3865V31.0385C193.893 37.8635 194.205 39.1505 194.478 40.0475H186.015C186.288 39.1895 186.561 38.0975 186.561 32.8715V30.1025C186.561 25.6175 183.285 24.1745 179.19 24.1745C176.85 24.1745 172.872 24.7985 169.635 26.7485V31.7015C169.635 38.7215 169.986 39.0725 170.181 40.0475H161.718ZM248.093 40.4375C248.054 38.6435 247.937 36.8495 247.898 35.2505C243.842 37.4345 236.432 40.8275 233.663 40.8275C225.746 40.8275 223.64 38.1755 223.64 35.7185C223.64 31.6235 230.66 28.6595 238.538 28.6595C240.995 28.6595 245.324 28.8935 247.937 29.1665V28.8545C247.937 25.2275 245.714 23.5505 240.02 23.5505C235.106 23.5505 230.582 25.2275 226.097 29.1665H226.019L224.693 23.3555C227.072 22.1855 234.131 19.7675 241.229 19.7675C251.759 19.7675 255.503 23.9015 255.503 28.1135V33.8465C255.503 37.7855 256.244 38.9165 256.556 39.0725V39.1505L248.093 40.4375ZM231.869 33.8465C231.869 34.8215 233.117 35.9915 236.276 35.9915C239.162 35.9915 242.984 35.4845 247.898 33.5345L247.937 30.7655C234.716 30.2975 231.869 31.8185 231.869 33.8465ZM261.655 40.0475C261.928 39.0725 262.162 37.8245 262.24 31.0385L262.279 26.7095C262.318 23.9015 261.382 22.1855 261.265 22.1075L269.572 19.7675V24.7985C271.249 23.3945 280.414 19.6505 282.481 19.6505C289.852 19.6505 294.298 21.7955 294.298 28.3865V31.0385C294.298 37.8635 294.61 39.1505 294.883 40.0475H286.42C286.693 39.1895 286.966 38.0975 286.966 32.8715V30.1025C286.966 25.6175 283.69 24.1745 279.127 24.1745C276.787 24.1745 272.809 24.7985 269.572 26.7485V31.7015C269.572 38.7215 269.923 39.0725 270.118 40.0475H261.655ZM300.164 40.0475C300.437 39.0725 300.671 37.8245 300.749 31.0385L300.788 26.7095C300.827 23.9015 299.891 22.1855 299.774 22.1075L308.12 19.7675L308.081 31.0385C308.042 38.0585 308.471 39.0725 308.666 40.0475H300.164ZM304.181 16.3745C301.646 16.3745 299.618 15.0485 299.618 13.3715C299.618 11.7335 301.646 10.4075 304.181 10.4075C306.677 10.4075 308.705 11.7335 308.705 13.3715C308.705 15.0485 306.677 16.3745 304.181 16.3745Z" fill="#262521"/>
<path d="M160.431 51.2588C163.581 51.2338 166.831 51.3088 169.381 51.1338L170.156 55.4338L169.956 55.5088C168.656 53.4338 165.656 52.5838 162.181 52.3838C162.081 53.0088 161.981 54.0588 161.981 55.4588V64.5088C161.981 67.7838 162.506 68.7338 162.506 68.7338H158.331C158.331 68.7338 158.831 67.7838 158.831 64.5088V55.4588C158.831 54.0588 158.756 53.0088 158.631 52.3838C155.156 52.5838 152.131 53.4338 150.831 55.5088L150.656 55.4338L151.431 51.1338C153.981 51.3088 157.281 51.2338 160.431 51.2588ZM183.387 61.7338C183.387 59.0588 182.062 57.9088 179.812 57.8838C178.262 57.8588 176.412 58.5838 175.112 59.9338V63.0838C175.112 67.5838 175.362 68.1088 175.487 68.7338H171.862C172.037 68.1088 172.212 67.3088 172.237 62.9588L172.287 54.2838C172.287 52.4838 171.687 51.4588 171.612 51.4088L175.137 49.9088L175.112 58.7088C176.187 57.3838 179.212 55.7088 181.087 55.7088C184.062 55.7088 186.262 56.9838 186.262 61.2588V62.9588C186.262 67.3088 186.462 68.1338 186.637 68.7338H183.012C183.162 68.1338 183.387 67.4588 183.387 63.3338V61.7338ZM189.49 68.7338C189.665 68.1088 189.815 67.3088 189.865 62.9588L189.89 60.1838C189.915 58.3838 189.315 57.2838 189.24 57.2338L192.74 55.7338L192.715 62.9588C192.69 67.4588 192.965 68.1088 193.09 68.7338H189.49ZM191.165 53.7338C190.14 53.7338 189.315 53.0588 189.315 52.2088C189.315 51.3588 190.14 50.6838 191.165 50.6838C192.19 50.6838 192.99 51.3588 192.99 52.2088C192.99 53.0588 192.19 53.7338 191.165 53.7338ZM195.91 68.7338C196.085 68.1088 196.235 67.3088 196.285 62.9588L196.31 60.1838C196.335 58.3838 195.735 57.2838 195.66 57.2338L199.185 55.7338V58.7088C200.235 57.3838 203.235 55.6838 204.985 55.6838C208.385 55.6838 210.31 57.1588 210.31 61.2588V62.9588C210.31 67.3088 210.51 68.1338 210.685 68.7338H207.06C207.21 68.1338 207.435 67.4588 207.435 63.3338V61.7338C207.435 58.8588 206.11 57.8838 203.86 57.8588C202.335 57.8588 200.46 58.6838 199.16 60.0588V63.0838C199.16 67.5838 199.41 68.1088 199.535 68.7338H195.91ZM213.538 68.7338C213.713 68.1088 213.888 67.3088 213.913 62.9588L213.938 54.4338C213.938 52.6338 213.363 51.6588 213.288 51.6088L216.788 50.1088L216.763 62.0338L223.038 57.4088C223.563 56.9588 224.088 56.5338 224.363 56.0338H227.588V56.1088C226.188 56.6338 223.938 58.3338 223.938 58.3338L221.338 60.2588L225.663 65.7838C226.588 66.9588 227.513 67.8338 228.763 68.6588V68.7338L223.788 68.7588C223.538 68.0088 223.263 67.5338 222.663 66.7088L219.063 61.9588L216.763 63.6588C216.788 67.5338 217.013 68.1338 217.138 68.7338H213.538ZM236.362 56.4338C238.337 56.2838 240.487 54.9088 241.462 52.7838H241.587V56.1588L247.562 55.8838L247.337 57.4838L241.587 57.3088V63.4588C241.587 66.0588 242.512 67.2338 244.637 67.2338C246.362 67.2338 247.812 66.2088 248.687 65.1838L248.787 65.2338C247.862 67.1088 246.362 69.0338 243.162 69.0338C240.387 69.0338 238.737 67.3838 238.737 64.5838V57.2338L236.362 57.1588V56.4338ZM265.749 68.8838L261.274 59.8838L257.349 68.6838L255.924 68.8838L250.874 58.7338C250.449 57.8588 250.024 57.0088 249.349 56.0338H253.474C253.499 56.7588 253.674 57.4588 254.199 58.6838L257.324 65.8588L260.024 59.3588C260.199 58.8338 260.349 58.4338 260.449 58.0588C260.099 57.4338 259.724 56.7838 259.174 56.0338H263.199C263.299 56.8338 263.524 57.5338 263.999 58.6838L267.124 65.8588L269.824 59.3588C270.374 58.0088 270.599 57.2588 270.824 56.0338H273.199C272.449 57.1588 271.824 58.2588 271.374 59.3088L267.099 68.7588L265.749 68.8838ZM274.939 68.7338C275.114 68.1088 275.264 67.3088 275.314 62.9588L275.339 60.1838C275.364 58.3838 274.764 57.2838 274.689 57.2338L278.189 55.7338L278.164 62.9588C278.139 67.4588 278.414 68.1088 278.539 68.7338H274.939ZM276.614 53.7338C275.589 53.7338 274.764 53.0588 274.764 52.2088C274.764 51.3588 275.589 50.6838 276.614 50.6838C277.639 50.6838 278.439 51.3588 278.439 52.2088C278.439 53.0588 277.639 53.7338 276.614 53.7338ZM293.571 60.7838C292.071 57.9838 289.796 57.0338 287.896 57.0338C285.871 57.0338 283.546 58.1088 283.546 61.4588C283.546 64.7338 285.746 66.9338 289.446 66.9338C291.571 66.9338 293.571 66.2088 294.921 64.7088L295.021 64.7588C293.671 67.6588 291.246 69.0588 287.896 69.0588C283.521 69.0588 280.546 66.6088 280.546 62.6838C280.546 58.6838 284.271 55.7338 288.321 55.7338C290.696 55.7338 292.271 56.0838 294.321 57.3838L293.646 60.7838H293.571ZM304.101 57.0338C302.001 57.0338 300.101 58.1088 300.001 61.1088L308.051 60.7838C307.601 57.9838 305.826 57.0338 304.101 57.0338ZM297.001 62.6088C297.001 58.4088 300.876 55.7338 304.776 55.7338C307.876 55.7338 311.251 57.5338 311.251 62.1088L300.026 62.0838C300.351 65.0588 302.576 66.9338 305.901 66.9338C308.026 66.9338 310.226 66.2088 311.576 64.7088L311.676 64.7588C310.301 67.6838 307.801 69.0588 304.351 69.0588C299.901 69.0588 297.001 66.5338 297.001 62.6088Z" fill="#262521"/>
<line x1="3.2793" y1="62.9302" x2="146.314" y2="62.9302" stroke="#262521"/>
</svg>
