<svg width="538" height="497" viewBox="0 0 538 497" fill="none" xmlns="http://www.w3.org/2000/svg">
<g clip-path="url(#clip0_848_1615)">
<path d="M477.267 216.699C478.753 216.699 480.188 216.25 481.685 216.233C483.322 216.215 484.959 216.233 486.596 216.233C489.137 216.233 491.7 216 494.259 216C498.436 216 502.69 216.058 506.834 216.453C507.881 216.553 508.878 216.343 509.684 217.048C509.954 217.284 510.769 217.316 511.128 217.385C511.906 217.533 513.092 218.229 513.818 218.614C516.034 219.79 518.067 221.44 520.334 222.496C521.363 222.976 522.444 223.335 523.468 223.829C524.498 224.326 525.465 224.967 526.479 225.499C527.012 225.778 528.1 226.018 528.478 226.534C528.802 226.976 528.911 227.043 529.293 227.362C529.584 227.607 529.802 228.132 530.181 228.294C531.363 228.799 531.896 229.856 533.118 230.222C533.158 230.234 534.005 230.926 534.117 231.025C534.367 231.243 534.042 230.785 534.006 230.727C533.712 230.254 534.38 231.109 534.426 231.193C534.729 231.748 534.619 232.704 534.796 233.341C535.134 234.561 535.051 236.363 534.549 237.547C533.98 238.891 533.559 240.004 533.291 241.494C532.898 243.674 532.409 245.511 531.575 247.551C531.356 248.087 531.021 248.572 530.687 249C530.264 249.543 530.301 250.325 529.91 250.812C529.243 251.642 529.542 253.503 528.244 253.503C525.159 253.503 521.941 253.271 518.804 253.271C518.261 253.271 516.937 253.274 516.706 253.84C516.639 254.002 518.095 252.849 518.1 252.869C518.359 253.955 517.305 255.228 517.249 256.299C517.141 258.341 516.804 260.427 516.804 262.485C516.804 264.633 516.36 266.578 516.36 268.748C516.36 271.202 515.916 273.569 515.916 276.008C515.916 278.32 516.138 280.598 516.138 282.906C516.138 283.928 516.126 284.706 516.533 285.649C516.759 286.172 516.713 286.777 516.953 287.28C517.245 287.893 517.608 288.259 517.742 288.962C518.027 290.458 518.148 291.249 517.927 292.754C517.575 295.159 518.935 298.228 515.682 298.228C511.781 298.228 508.035 298.927 504.131 298.927C501.278 298.927 498.423 299.005 495.58 298.746C494.095 298.61 492.579 298.694 491.088 298.694C489.818 298.694 488.655 298.228 487.386 298.228C485.88 298.228 484.272 298.045 482.857 298.681C481.455 299.311 479.657 298.835 478.193 298.707C476.341 298.545 474.413 298.694 472.553 298.694C471.729 298.694 470.968 298.485 470.159 298.461C469.44 298.44 468.526 298.654 467.84 298.448C467.479 298.34 469.569 298.219 469.654 298.086C469.831 297.807 468.866 296.754 468.827 296.365C468.731 295.414 467.983 294.514 467.938 293.569C467.879 292.325 467.938 291.063 467.938 289.816C467.938 285.425 468.383 281.108 468.383 276.694C468.383 274.158 468.383 271.621 468.383 269.085C468.383 265.628 469.134 261.801 468.432 258.395C468.1 256.785 468.605 255.103 468.605 253.516C468.605 252.322 468.747 253.54 468.345 253.698C467.475 254.04 466.059 253.751 465.174 253.555C462.966 253.068 460.615 253.14 458.375 252.688C457.393 252.49 456.546 252.516 455.635 252.002C455.136 251.72 455.5 251.64 455.5 251.122C455.5 250.098 455.575 249.222 455.006 248.327C454.041 246.809 453.269 245.26 452.945 243.448C452.399 240.392 451.501 237.458 451.501 234.325C451.501 233.299 451.529 232.27 451.501 231.245C451.482 230.501 450.727 230.168 451.107 230.805C451.572 231.585 455.677 228.393 456.277 227.764C457.069 226.933 458.129 226.299 459.115 225.758C459.969 225.289 460.931 224.922 461.719 224.334C462.344 223.868 462.847 223.198 463.595 222.936C464.473 222.629 465.202 222.092 466.112 221.875C467.456 221.555 469.344 221.004 470.382 220.064C471.5 219.051 472.594 217.864 474.158 217.864C474.65 217.864 475.042 217.657 475.49 217.631C475.986 217.602 475.935 217.071 475.935 217.747C475.935 218.597 475.313 219.67 476.033 220.426C476.773 221.202 477.39 222.182 478.156 222.885C479.306 223.941 480.431 225.233 482.03 225.538C482.674 225.66 483.127 226.061 483.709 226.366C484.195 226.621 484.638 227.609 485.091 227.647C485.713 227.699 486.317 228.158 486.966 228.294C489.057 228.732 490.884 229.86 492.927 230.326C494.151 230.605 495.597 230.966 496.863 230.623C498.417 230.203 501.439 230.285 502.589 228.928C503.917 227.362 505.138 225.722 506.414 224.024C507.451 222.643 509.461 222.303 509.684 220.193C509.826 218.858 509.919 217.6 509.919 216.233" stroke="#513C22" stroke-width="5" stroke-linecap="round"/>
<path d="M42.0169 159.045C41.604 148.079 48.8812 136.133 52.5112 129.876C69.6462 100.414 89.6715 72.0872 115.959 50.3777C172.439 3.71017 251.749 -6.86094 324.246 3.8133C358 8.78086 391.754 18.2003 420.175 37.0736C450.282 57.0814 472.698 86.457 494.272 115.454C498.607 121.281 504.164 127.744 511.441 127.384C516.155 127.143 520.594 124.015 524.895 121.728C529.626 119.219 535.045 123.705 533.411 128.793C526.409 150.64 516.62 171.593 504.353 190.982C503.373 192.529 502.254 194.179 500.517 194.798C498.383 195.554 496.061 194.523 494.048 193.474C473.524 182.766 454.703 168.826 438.463 152.342C434.97 148.784 437.086 142.767 442.058 142.217L449.611 141.375C464.888 141.461 464.974 136.27 461.498 130.649C433.095 84.9788 387.35 52.9217 338.147 40.4598C291.232 28.5823 240.463 30.1809 195.527 48.1432C150.59 66.1227 112.019 100.982 92.579 145.26C86.8673 158.289 82.6352 172.281 68.0635 180.119C67.1861 180.583 66.1883 180.806 65.1904 180.789C41.5351 180.308 42.533 172.349 42.0341 159.028L42.0169 159.045Z" fill="#513C23"/>
<path d="M498.812 349.314C497.332 359.558 492.119 370.851 488.627 376.713C472.18 404.318 453.032 430.823 428.035 451.037C374.325 494.473 299.471 503.669 231.223 492.892C199.447 487.873 167.723 478.677 141.109 460.594C112.912 441.446 92.0779 413.514 72.0354 385.978C67.9925 380.443 62.8314 374.289 55.967 374.564C48.0877 374.874 40.9825 383.76 33.9117 381.612C33.2407 381.405 32.845 380.683 33.0515 380.013C39.9846 356.963 50.1865 334.892 63.2615 314.678C64.2077 313.217 65.2743 311.688 66.9087 311.12C68.9387 310.433 71.3645 311.052 72.9988 312.444C92.5768 329.237 103.157 340.926 125.436 353.8C130.219 356.568 132.301 360.899 123.045 361.123L103.863 363.065C103.037 363.151 102.486 364.01 102.779 364.784C120.877 412.878 168.652 445.055 218.458 458.222C262.568 469.876 310.447 468.879 352.992 452.378C395.537 435.877 432.233 403.39 451.002 361.827C455.836 351.101 459.604 339.671 469.772 332.142C472.851 329.856 478.459 327.828 482.296 328.051C492.98 328.687 500.412 338.141 498.794 349.331L498.812 349.314Z" fill="#513C23"/>
<path d="M66.3573 198.398C65.2272 198.398 64.3393 198.46 63.276 198.746C62.3899 198.985 61.0768 198.645 60.2803 199.029C58.8444 199.721 57.3423 200.954 55.7546 201.357C55.2317 201.49 54.9982 202.035 54.4279 202.108C53.9592 202.167 53.835 202.31 53.5506 202.695C53.1546 203.232 52.4133 203.462 51.9885 203.99C51.4798 204.622 50.9029 205.041 50.4372 205.644C49.9929 206.219 49.131 207.065 48.5969 207.558C48.4562 207.688 48.1555 207.784 47.9764 207.928C47.4601 208.345 47.2424 208.969 46.7567 209.364C46.0634 209.928 45.7549 210.774 45.1732 211.431C44.5834 212.098 43.9992 212.686 43.5898 213.477C43.1693 214.289 43.0864 215.124 42.7445 215.935C42.3664 216.833 41.9313 217.678 41.4286 218.481C41.0184 219.136 41.1185 220.483 40.9792 221.244C40.7844 222.309 41.199 223.534 40.7866 224.53C40.5736 225.044 40.6377 226.079 40.5619 226.619C40.3057 228.442 41.3216 230.201 41.3216 231.993C41.3216 233.631 42.7795 234.79 42.8622 236.388C42.9014 237.146 43.719 238.121 44.1247 238.694C44.4941 239.216 44.9414 240.107 45.1732 240.696C45.47 241.451 47.0143 243.439 47.7624 243.677C48.4978 243.911 48.7943 244.775 49.4528 245.048C49.9852 245.268 50.7191 245.823 50.9935 246.288C51.0994 246.468 52.0538 247.352 52.4486 247.507C53.1453 247.779 53.7346 248.544 54.3209 249.008C55.1709 249.68 56.0871 249.97 56.9208 250.77C58.0135 251.82 59.8162 252.25 61.2646 252.25C63.3453 252.25 65.2244 253.033 67.3203 253.033C68.5701 253.033 69.397 252.845 70.5835 252.544C71.5688 252.293 72.6676 252.683 73.6327 252.402C74.5082 252.148 74.8594 251.695 75.6013 251.271C76.0196 251.031 76.2596 250.657 76.7568 250.531C77.1741 250.425 77.5454 250.485 77.9551 250.335C78.9176 249.983 79.9304 249.896 80.8439 249.356C81.6507 248.879 82.4733 248.24 83.2083 247.659C84.5607 246.589 87.5071 246.438 88.3011 244.689C88.5267 244.192 88.9495 243.839 89.0928 243.329C89.2001 242.947 89.4564 242.338 89.7562 242.067C90.7279 241.189 91.9464 240.342 92.3988 239.064C92.7019 238.208 93.4243 237.319 93.5115 236.388C93.6034 235.408 94.1057 234.295 94.3782 233.353C95.1498 230.685 95.2448 227.857 95.2448 225.074C95.2448 223.723 94.552 221.945 94.0465 220.526C93.6131 219.31 92.7851 217.861 92.7412 216.566C92.7107 215.666 92.6052 213.817 91.9281 213.128C91.2669 212.456 90.8167 211.926 90.3232 211.105C89.7262 210.112 89.2696 209.043 88.5258 208.178C88.1497 207.741 88.2491 207.333 87.7447 206.916C87.3383 206.581 87.1559 206.208 86.6855 205.948C84.5494 204.769 82.6489 202.844 80.9187 201.161C79.2687 199.556 76.5205 199.003 74.3602 198.507C71.74 197.905 69.1797 198.006 66.5071 198.006C65.5061 198.006 64.4784 198.151 63.4686 198.202C62.7951 198.236 61.8052 198.287 61.1469 198.496C60.4352 198.722 59.6612 198.791 58.9536 198.996C58.6308 199.09 57.8576 199.658 58.0763 199.769" stroke="#513C22" stroke-width="4" stroke-linecap="round"/>
<path d="M74.4455 217.198C73.3297 216.597 72.676 215.481 71.4926 215.044C70.4848 214.671 69.4612 214.573 68.4113 214.217C67.553 213.926 67.5125 213.413 67.5125 212.596C67.5125 212.139 67.7324 211.896 67.8549 211.475C68.0259 210.889 67.8977 210.094 67.8977 209.484C67.8977 207.975 67.8176 209.138 67.8977 210.061C67.9547 210.717 68.7622 211.8 68.0475 212.454C67.8393 212.645 67.5308 212.966 67.5125 213.281C67.4785 213.869 67.2588 213.729 66.8385 213.966C65.898 214.498 65.1148 214.435 64.153 214.761C62.7303 215.243 60.5796 216.238 60.5796 217.883C60.5796 218.871 61.2677 219.258 61.3499 220.135C61.3922 220.586 61.6779 220.885 61.7458 221.299C61.8133 221.711 62.3673 221.603 62.5482 221.897C62.8133 222.329 63.8205 222.738 64.2279 222.877C64.5226 222.976 64.7247 223.276 65.009 223.42C65.2108 223.523 65.8694 223.823 65.9719 223.954C66.187 224.227 66.7493 224.298 67.0418 224.541C67.5997 225.005 68.3044 225.052 68.8178 225.575C69.497 226.265 70.393 226.362 71.086 226.989C71.5998 227.453 72.5491 228.009 72.9049 228.642C73.1856 229.142 73.6183 229.891 73.9748 230.318C74.575 231.036 74.4455 232.096 74.4455 232.972C74.4455 233.629 72.8325 234.829 72.2201 235.007C71.3893 235.248 70.79 235.773 69.8235 235.801C68.6553 235.835 67.5075 236.005 66.4212 236.345C65.3996 236.665 64.2123 235.887 63.4576 235.311C63.1226 235.056 61.4303 234.433 61.3606 234.115C61.2744 233.72 61.196 233.648 60.8577 233.451C60.7603 233.394 59.9493 233.026 60.5796 233.059C61.2006 233.093 62.211 233.814 62.805 234.082C63.0104 234.175 63.5355 234.173 63.6609 234.332C64.4628 235.351 67.5125 235.029 67.5125 236.584C67.5125 237.461 67.5243 238.198 67.8014 239.043C67.9463 239.485 68.0903 239.844 68.0903 240.305C68.0903 240.448 67.8604 241.298 67.7158 240.784C67.5088 240.047 67.8977 239.409 67.8977 238.738C67.8977 237.717 67.5125 236.824 67.5125 235.801" stroke="#C8D94A" stroke-width="4" stroke-linecap="round"/>
<path d="M2.03418 278.882C2.63523 279.554 4.34517 280.937 4.34517 281.917C4.34517 282.561 5.02438 283.505 5.30809 284.082C5.50574 284.484 5.92038 285.111 6.19611 285.453C6.52367 285.86 6.79129 286.422 7.22322 286.715C7.39638 286.833 8.03798 287.654 8.15404 287.89C8.65487 288.909 9.85953 289.8 10.5506 290.828C11.444 292.155 12.5741 293.823 13.771 294.918C14.7622 295.825 16.0488 297.111 16.7668 298.247C18.0121 300.217 20.2045 301.487 21.3353 303.556C21.6383 304.111 22.3897 305.195 22.9401 305.514C23.6812 305.945 24.8977 304.214 25.6149 303.828C26.7796 303.201 27.6774 302.405 28.6106 301.402C29.7315 300.197 30.3226 298.796 31.8417 298.117C32.4811 297.83 33.8287 297 34.2811 296.409C34.8614 295.65 34.2497 294.973 33.7248 294.439C33.3899 294.099 33.5586 293.556 33.3824 293.177C33.0568 292.479 32.8227 291.76 32.2911 291.219C32.0715 290.996 31.52 290.403 32.0771 290.436C32.7061 290.473 31.7948 291.44 32.7618 290.719C33.3182 290.304 33.4849 289.683 33.928 289.283C34.2928 288.953 34.7436 288.967 35.0728 288.521C35.6317 287.764 36.6688 287.091 37.5122 286.519C39.3627 285.265 41.124 286.715 43.0436 286.715C43.685 286.715 44.4149 286.61 45.0444 286.726C45.398 286.791 45.6253 287.107 46.1357 287.107C47.3635 287.107 48.4998 287.557 49.6022 288.086C50.4862 288.51 51.5785 288.478 52.5016 288.771C53.3159 289.03 54.5975 288.631 55.2833 289.174C55.8765 289.643 56.7365 290.007 57.4981 290.044C58.8382 290.109 59.811 290.398 61.1143 290.675C62.1786 290.902 63.393 291.024 64.431 291.317C65.5044 291.62 66.5827 291.982 67.5873 292.209C67.959 292.293 68.2829 292.848 68.6679 292.96C69.1986 293.114 69.689 293.165 70.2085 293.33C70.7306 293.496 71.3288 293.6 71.8348 293.787C72.2319 293.933 72.6503 294.327 73.0973 294.352C74.291 294.42 75.8623 293.317 76.7563 292.59C77.2332 292.202 78.2501 292.374 78.8534 292.198C79.7181 291.947 80.5982 291.171 81.2713 290.588C82.5301 289.499 83.8312 288.731 85.1123 287.629C85.5966 287.212 86.6815 286.71 87.3056 286.563C88.1045 286.374 88.4758 285.857 89.0923 285.355C90.5865 284.14 91.8202 283.032 93.6608 282.364C95.2865 281.773 96.9046 280.772 98.0475 279.426C98.7551 278.593 99.4688 278.057 100.358 277.446C100.821 277.128 101.31 277.177 101.792 276.793C103.399 275.517 104.111 273.327 105.644 271.963C106.14 271.521 106.745 270.266 107.473 270.266C107.769 270.266 108.031 269.962 108.254 269.776C109.081 269.088 109.99 269.144 110.694 268.199C111.352 267.315 111.957 265.582 111.999 264.435C112.053 262.965 110.134 261.633 109.11 260.964C107.991 260.233 107.428 259.714 106.029 260.04C105.626 260.133 104.885 259.912 104.606 260.29C104.358 260.626 103.945 260.848 103.483 260.866C100.79 260.972 98.7266 262.556 96.5817 264.01C95.1079 265.009 94.1676 266.984 92.5481 267.807C91.4633 268.359 90.7842 269.58 89.7557 270.277C89.2759 270.602 88.691 271.137 88.2364 271.528C87.641 272.04 86.9005 272.251 86.2357 272.659C85.4265 273.157 84.4605 273.437 83.8391 274.139C82.5741 275.568 83.331 274.435 81.4746 275.945C81.1886 276.177 80.9065 277.177 80.7578 277.555C80.525 278.147 80.0077 278.465 79.7414 279.067C79.5496 279.5 79.2352 279.825 79.0245 280.253C78.2241 281.881 76.3655 282.407 74.7235 282.407C72.82 282.407 71.7025 280.588 69.7806 280.449C68.7286 280.372 67.8184 279.352 66.8062 279.078C65.4893 278.721 63.8282 278.659 62.6978 277.892C62.2969 277.62 61.5786 277.527 61.2534 277.196C60.8326 276.768 60.0936 276.602 59.7662 276.141C59.1254 275.238 57.2911 275.35 56.3853 274.77C55.5948 274.264 54.5861 273.595 53.6464 273.595C53.145 273.595 51.9409 273.222 52.4909 273.595" stroke="#513C22" stroke-width="4" stroke-linecap="round"/>
<path d="M101.408 260.67C99.7134 258.634 98.5305 256.166 95.7267 256.166C94.9872 256.166 93.978 257.066 93.3301 257.45C92.8915 257.71 92.7872 257.671 92.2495 257.744C91.4025 257.859 90.4279 258.616 89.6604 259.006C88.7256 259.481 88.0201 259.684 87.2424 260.474C86.5488 261.18 85.7309 261.579 85.1026 262.193C84.7243 262.563 83.7097 262.945 83.2195 263.216C82.6719 263.518 82.2412 263.78 81.8073 264.239C81.2384 264.84 80.5159 265.072 79.8814 265.609C79.1412 266.237 78.3546 266.809 77.6132 267.426C77.2401 267.737 76.574 267.732 76.2758 268.036C76.0973 268.217 75.4953 268.655 75.4092 268.808C75.1262 269.311 73.9489 269.678 74.6496 269.678C75.534 269.678 76.3471 269.746 77.1425 270.07C77.5514 270.236 78.1006 270.994 78.298 271.332C78.8231 272.231 79.5563 272.808 79.8814 273.899C79.9943 274.278 80.7938 275.695 80.8015 275.553C80.8535 274.602 79.9608 272.964 79.2181 272.485C78.7642 272.192 78.3619 271.832 77.9128 271.539C77.2457 271.103 76.3979 271.107 75.8907 270.472C75.4262 269.891 73.9328 268.848 73.1838 268.71C72.5288 268.589 72.3722 268.297 71.7609 268.025C71.1997 267.775 70.5966 267.917 70.0169 267.622C69.5491 267.384 69.1572 266.883 68.6688 266.741C68.2579 266.621 68.3017 266.061 67.9841 265.968C67.5954 265.856 67.197 264.978 67.8985 264.978C68.3131 264.978 68.6785 265.017 69.054 264.826C69.5207 264.589 69.2211 264.308 69.482 264.043C69.9223 263.595 70.6569 263.18 71.1724 262.629C71.6473 262.12 72.3798 260.931 73.141 260.866C73.7776 260.812 74.6235 259.801 75.1204 259.408C75.8487 258.832 76.7603 258.731 77.4313 258.048C77.8154 257.658 78.6735 257.563 79.1432 257.254C79.5478 256.988 79.945 256.746 80.3201 256.449C80.9572 255.945 81.7178 255.452 82.2566 254.904C82.601 254.554 83.4193 254.434 83.8829 254.643C84.6349 254.983 85.468 254.97 86.1939 255.34C87.3711 255.938 87.8633 258.206 89.0826 258.516" stroke="#513C22" stroke-width="4" stroke-linecap="round"/>
<path d="M65.5865 265.762C64.0346 265.64 62.9644 264.506 61.7348 263.695C60.9608 263.184 59.9659 262.755 59.0815 262.476C58.5003 262.293 58.1549 261.825 57.5943 261.649C56.6084 261.341 55.9867 260.847 54.9516 260.627C54.453 260.521 54.216 260.154 53.6891 260.039C53.036 259.897 52.5504 259.436 51.9238 259.212C50.0654 258.551 48.2327 256.95 46.2319 256.95C44.4181 256.95 43.6306 257.435 42.2946 256.841C40.589 256.082 39.5402 257.499 37.8545 257.744C37.0345 257.863 36.3108 258.589 35.6077 258.864C34.7301 259.208 34.2921 259.635 33.7247 260.377C33.2871 260.949 32.6338 261.17 32.1198 261.693C31.6243 262.197 30.5593 263.074 29.8837 263.227C29.6678 263.276 28.5007 264.799 28.3752 265.131C28.1267 265.788 27.7038 266.229 27.1662 266.654C25.8432 267.7 24.369 268.634 22.9615 269.569C21.6612 270.434 20.4393 271.765 19.281 272.811C18.8898 273.165 18.0831 273.707 17.5477 273.78C16.4874 273.923 17.1692 274.262 17.6761 274.726C17.9918 275.015 18.85 274.923 19.2596 275.161C19.7057 275.421 19.8754 276.67 20.3295 276.728C20.3453 276.73 21.2333 277.898 21.271 278.023C21.5215 278.85 21.9705 279.737 22.4479 280.492C23.5811 282.285 24.7509 284.327 25.679 286.215C26.3925 287.666 27.9054 288.261 29.0813 289.457C29.5291 289.912 30.0041 290.308 30.4401 290.751C30.9265 291.246 31.3067 292.187 31.3067 291.023" stroke="#513C22" stroke-width="4" stroke-linecap="round"/>
<path d="M2 278.727C2.05542 278.22 3.76601 277.416 4.18055 277.108C5.15806 276.383 6.19212 275.834 7.13986 275.084C7.51582 274.787 7.71444 274.325 8.16091 274.134C8.86987 273.831 9.56115 273.409 10.2376 273.034C10.7246 272.764 11.1979 272.701 11.6913 272.392C12.9992 271.574 13.9281 271.02 15.3948 271.978C16.1279 272.458 17.3316 272.847 17.7311 273.659" stroke="#513C22" stroke-width="4" stroke-linecap="round"/>
</g>
<defs>
<clipPath id="clip0_848_1615">
<rect width="538" height="497" fill="white"/>
</clipPath>
</defs>
</svg>
