<svg width="31" height="31" viewBox="0 0 31 31" fill="none" xmlns="http://www.w3.org/2000/svg">
<path d="M15.9346 15.5C13.8721 15.5 12.1064 14.7656 10.6377 13.2969C9.16894 11.8281 8.43457 10.0625 8.43457 8C8.43457 5.9375 9.16894 4.17188 10.6377 2.70312C12.1064 1.23438 13.8721 0.5 15.9346 0.5C17.9971 0.5 19.7627 1.23438 21.2314 2.70312C22.7002 4.17188 23.4346 5.9375 23.4346 8C23.4346 10.0625 22.7002 11.8281 21.2314 13.2969C19.7627 14.7656 17.9971 15.5 15.9346 15.5ZM0.93457 30.5V25.25C0.93457 24.1875 1.20832 23.2112 1.75582 22.3212C2.30332 21.4312 3.02957 20.7512 3.93457 20.2812C5.87207 19.3125 7.84082 18.5862 9.84082 18.1025C11.8408 17.6187 13.8721 17.3762 15.9346 17.375C17.9971 17.3737 20.0283 17.6162 22.0283 18.1025C24.0283 18.5887 25.9971 19.315 27.9346 20.2812C28.8408 20.75 29.5677 21.43 30.1152 22.3212C30.6627 23.2125 30.9358 24.1887 30.9346 25.25V30.5H0.93457Z" fill="#513C22"/>
</svg>
