<svg width="23" height="26" viewBox="0 0 23 26" fill="none" xmlns="http://www.w3.org/2000/svg">
<path d="M17.8889 4.41667C16.9395 3.33281 16.4162 1.94088 16.4166 0.5H12.125V17.7222C12.0919 18.6542 11.6984 19.537 11.0274 20.1846C10.3564 20.8323 9.46032 21.1943 8.52775 21.1944C6.55553 21.1944 4.91664 19.5833 4.91664 17.5833C4.91664 15.1944 7.2222 13.4028 9.59719 14.1389V9.75C4.80553 9.11111 0.611084 12.8333 0.611084 17.5833C0.611084 22.2083 4.44442 25.5 8.51386 25.5C12.875 25.5 16.4166 21.9583 16.4166 17.5833V8.84722C18.1569 10.097 20.2463 10.7676 22.3889 10.7639V6.47222C22.3889 6.47222 19.7778 6.59722 17.8889 4.41667Z" fill="#F3ECD9"/>
</svg>
